<svg xmlns="http://www.w3.org/2000/svg" xmlns:xlink="http://www.w3.org/1999/xlink" width="1080" zoomAndPan="magnify" viewBox="0 0 810 809.999993" height="1080" preserveAspectRatio="xMidYMid meet" version="1.0"><defs><g/><clipPath id="d8e5e955ba"><path d="M 290 0.121094 L 723.121094 0.121094 L 723.121094 243.238281 L 290 243.238281 Z M 290 0.121094 " clip-rule="nonzero"/></clipPath><clipPath id="c14365f396"><rect x="0" width="434" y="0" height="244"/></clipPath><clipPath id="87ced91f6d"><path d="M 0.960938 2 L 316 2 L 316 243 L 0.960938 243 Z M 0.960938 2 " clip-rule="nonzero"/></clipPath><clipPath id="0ee0640618"><rect x="0" width="316" y="0" height="241"/></clipPath><clipPath id="426ca74b1c"><rect x="0" width="724" y="0" height="244"/></clipPath><clipPath id="d8f5ab36a5"><path d="M 6 0.878906 L 90 0.878906 L 90 137 L 6 137 Z M 6 0.878906 " clip-rule="nonzero"/></clipPath><clipPath id="20d4ffb5c7"><path d="M 85 0.878906 L 135 0.878906 L 135 137 L 85 137 Z M 85 0.878906 " clip-rule="nonzero"/></clipPath><clipPath id="c25c74b779"><path d="M 261 0.878906 L 360 0.878906 L 360 137 L 261 137 Z M 261 0.878906 " clip-rule="nonzero"/></clipPath><clipPath id="272d7320f6"><rect x="0" width="364" y="0" height="188"/></clipPath></defs><g transform="matrix(1, 0, 0, 1, 30, 333)"><g clip-path="url(#426ca74b1c)"><g clip-path="url(#d8e5e955ba)"><g transform="matrix(1, 0, 0, 1, 290, 0.000000000000056843)"><g clip-path="url(#c14365f396)"><g fill="#eeede9" fill-opacity="1"><g transform="translate(1.982853, 198.775819)"><g><path d="M 8.625 -123.109375 L 34.515625 -123.109375 L 34.515625 -75 L 35.84375 -75 C 37.71875 -79.09375 40.785156 -82.546875 45.046875 -85.359375 C 49.304688 -88.179688 54.476562 -89.59375 60.5625 -89.59375 C 72.0625 -89.59375 80.023438 -85.96875 84.453125 -78.71875 C 88.878906 -71.476562 91.09375 -63.378906 91.09375 -54.421875 L 91.09375 0 L 65.203125 0 L 65.203125 -49.9375 C 65.203125 -55.695312 63.929688 -60.234375 61.390625 -63.546875 C 58.847656 -66.867188 55.03125 -68.53125 49.9375 -68.53125 C 44.851562 -68.53125 41.007812 -66.8125 38.40625 -63.375 C 35.8125 -59.945312 34.515625 -55.46875 34.515625 -49.9375 L 34.515625 0 L 8.625 0 Z M 8.625 -123.109375 "/></g></g></g><g fill="#eeede9" fill-opacity="1"><g transform="translate(92.237259, 198.775819)"><g><path d="M 48.453125 1.5 C 39.160156 1.5 31.332031 -0.546875 24.96875 -4.640625 C 18.613281 -8.734375 13.882812 -14.207031 10.78125 -21.0625 C 7.6875 -27.925781 6.140625 -35.5625 6.140625 -43.96875 C 6.140625 -52.257812 7.6875 -59.863281 10.78125 -66.78125 C 13.882812 -73.695312 18.613281 -79.226562 24.96875 -83.375 C 31.332031 -87.519531 39.160156 -89.59375 48.453125 -89.59375 C 57.742188 -89.59375 65.566406 -87.546875 71.921875 -83.453125 C 78.285156 -79.359375 83.015625 -73.851562 86.109375 -66.9375 C 89.210938 -60.03125 90.765625 -52.429688 90.765625 -44.140625 C 90.765625 -35.835938 89.210938 -28.226562 86.109375 -21.3125 C 83.015625 -14.40625 78.285156 -8.875 71.921875 -4.71875 C 65.566406 -0.570312 57.742188 1.5 48.453125 1.5 Z M 48.453125 -19.25 C 54.203125 -19.25 58.457031 -21.625 61.21875 -26.375 C 63.988281 -31.132812 65.375 -37.109375 65.375 -44.296875 C 65.375 -51.492188 63.988281 -57.382812 61.21875 -61.96875 C 58.457031 -66.5625 54.203125 -68.859375 48.453125 -68.859375 C 42.703125 -68.859375 38.441406 -66.535156 35.671875 -61.890625 C 32.910156 -57.242188 31.53125 -51.378906 31.53125 -44.296875 C 31.53125 -37.109375 32.9375 -31.132812 35.75 -26.375 C 38.570312 -21.625 42.804688 -19.25 48.453125 -19.25 Z M 48.453125 -19.25 "/></g></g></g><g fill="#eeede9" fill-opacity="1"><g transform="translate(180.002989, 198.775819)"><g><path d="M 89.4375 0 L 63.375 0 L 63.375 -13.109375 L 62.21875 -13.109375 C 60.34375 -9.015625 57.359375 -5.53125 53.265625 -2.65625 C 49.171875 0.21875 44.191406 1.65625 38.328125 1.65625 C 26.929688 1.65625 19.128906 -1.992188 14.921875 -9.296875 C 10.722656 -16.597656 8.625 -24.726562 8.625 -33.6875 L 8.625 -87.765625 L 34.34375 -87.765625 L 34.34375 -38 C 34.34375 -32.46875 35.503906 -28.015625 37.828125 -24.640625 C 40.148438 -21.265625 43.742188 -19.578125 48.609375 -19.578125 C 53.703125 -19.578125 57.4375 -21.316406 59.8125 -24.796875 C 62.1875 -28.285156 63.375 -32.6875 63.375 -38 L 63.375 -87.765625 L 89.4375 -87.765625 Z M 89.4375 0 "/></g></g></g><g fill="#eeede9" fill-opacity="1"><g transform="translate(268.432363, 198.775819)"><g><path d="M 41.8125 1.5 C 34.40625 1.5 27.988281 0.117188 22.5625 -2.640625 C 17.144531 -5.410156 13.023438 -9.035156 10.203125 -13.515625 C 7.378906 -18.003906 5.96875 -22.734375 5.96875 -27.703125 L 5.96875 -28.875 L 31.03125 -28.875 L 31.03125 -27.875 C 31.03125 -25.332031 32.023438 -23.09375 34.015625 -21.15625 C 36.003906 -19.21875 38.820312 -18.25 42.46875 -18.25 C 45.570312 -18.25 48.0625 -18.992188 49.9375 -20.484375 C 51.820312 -21.984375 52.765625 -23.945312 52.765625 -26.375 C 52.765625 -28.59375 51.878906 -30.363281 50.109375 -31.6875 C 48.335938 -33.019531 46.125 -33.90625 43.46875 -34.34375 L 34.015625 -36.34375 C 27.597656 -37.445312 21.675781 -40.015625 16.25 -44.046875 C 10.832031 -48.085938 8.125 -54.3125 8.125 -62.71875 C 8.125 -71.238281 11.191406 -77.847656 17.328125 -82.546875 C 23.472656 -87.242188 31.359375 -89.59375 40.984375 -89.59375 C 48.171875 -89.59375 54.363281 -88.320312 59.5625 -85.78125 C 64.757812 -83.238281 68.6875 -79.890625 71.34375 -75.734375 C 74 -71.585938 75.328125 -67.191406 75.328125 -62.546875 L 75.328125 -61.71875 L 50.28125 -61.71875 L 50.28125 -62.21875 C 50.28125 -64.4375 49.445312 -66.484375 47.78125 -68.359375 C 46.125 -70.242188 43.582031 -71.1875 40.15625 -71.1875 C 37.28125 -71.1875 34.984375 -70.492188 33.265625 -69.109375 C 31.554688 -67.722656 30.703125 -65.8125 30.703125 -63.375 C 30.703125 -59.0625 34.296875 -56.242188 41.484375 -54.921875 L 51.765625 -52.59375 C 58.734375 -51.050781 64.625 -48.234375 69.4375 -44.140625 C 74.25 -40.046875 76.65625 -34.238281 76.65625 -26.71875 C 76.65625 -20.957031 75.132812 -15.945312 72.09375 -11.6875 C 69.050781 -7.4375 64.875 -4.175781 59.5625 -1.90625 C 54.257812 0.363281 48.34375 1.5 41.8125 1.5 Z M 41.8125 1.5 "/></g></g></g><g fill="#eeede9" fill-opacity="1"><g transform="translate(341.100219, 198.775819)"><g><path d="M 48.28125 1.5 C 38.988281 1.5 31.160156 -0.628906 24.796875 -4.890625 C 18.441406 -9.148438 13.742188 -14.734375 10.703125 -21.640625 C 7.660156 -28.554688 6.140625 -36 6.140625 -43.96875 C 6.140625 -51.9375 7.660156 -59.375 10.703125 -66.28125 C 13.742188 -73.195312 18.441406 -78.8125 24.796875 -83.125 C 31.160156 -87.4375 39.097656 -89.59375 48.609375 -89.59375 C 61.003906 -89.59375 70.847656 -85.691406 78.140625 -77.890625 C 85.441406 -70.097656 89.09375 -58.789062 89.09375 -43.96875 L 89.09375 -36.828125 L 31.03125 -36.828125 L 31.03125 -35.5 C 31.03125 -30.96875 32.601562 -27.070312 35.75 -23.8125 C 38.90625 -20.550781 42.914062 -18.921875 47.78125 -18.921875 C 51.539062 -18.921875 54.75 -19.773438 57.40625 -21.484375 C 60.0625 -23.203125 61.941406 -25.5 63.046875 -28.375 L 88.4375 -28.375 C 86.226562 -19.632812 81.664062 -12.46875 74.75 -6.875 C 67.832031 -1.289062 59.007812 1.5 48.28125 1.5 Z M 64.375 -53.421875 C 64.269531 -59.398438 62.75 -63.828125 59.8125 -66.703125 C 56.882812 -69.578125 52.988281 -71.015625 48.125 -71.015625 C 43.144531 -71.015625 39.1875 -69.460938 36.25 -66.359375 C 33.320312 -63.265625 31.800781 -58.953125 31.6875 -53.421875 Z M 64.375 -53.421875 "/></g></g></g></g></g></g><g clip-path="url(#87ced91f6d)"><g transform="matrix(1, 0, 0, 1, -0.000000000000003553, 2)"><g clip-path="url(#0ee0640618)"><g fill="#eeede9" fill-opacity="1"><g transform="translate(1.116575, 196.104888)"><g><path d="M 47.90625 1.46875 C 38.601562 1.46875 30.804688 -0.660156 24.515625 -4.921875 C 18.234375 -9.179688 13.585938 -14.726562 10.578125 -21.5625 C 7.566406 -28.40625 6.0625 -35.765625 6.0625 -43.640625 C 6.0625 -51.515625 7.566406 -58.867188 10.578125 -65.703125 C 13.585938 -72.535156 18.234375 -78.054688 24.515625 -82.265625 C 30.804688 -86.472656 38.601562 -88.578125 47.90625 -88.578125 C 59.5 -88.578125 68.710938 -85.242188 75.546875 -78.578125 C 82.378906 -71.910156 86.5625 -63.4375 88.09375 -53.15625 L 63.15625 -53.15625 C 62.5 -57.632812 60.910156 -61.238281 58.390625 -63.96875 C 55.878906 -66.707031 52.492188 -68.078125 48.234375 -68.078125 C 42.109375 -68.078125 37.734375 -65.695312 35.109375 -60.9375 C 32.484375 -56.1875 31.171875 -50.421875 31.171875 -43.640625 C 31.171875 -36.742188 32.484375 -30.914062 35.109375 -26.15625 C 37.734375 -21.40625 42.109375 -19.03125 48.234375 -19.03125 C 52.492188 -19.03125 55.878906 -20.421875 58.390625 -23.203125 C 60.910156 -25.992188 62.5 -29.578125 63.15625 -33.953125 L 88.09375 -33.953125 C 86.5625 -23.671875 82.40625 -15.195312 75.625 -8.53125 C 68.84375 -1.863281 59.601562 1.46875 47.90625 1.46875 Z M 47.90625 1.46875 "/></g></g></g><g fill="#eeede9" fill-opacity="1"><g transform="translate(81.825224, 196.104888)"><g><path d="M 38.875 1.46875 C 28.15625 1.46875 19.867188 -2.601562 14.015625 -10.75 C 8.171875 -18.894531 5.25 -29.800781 5.25 -43.46875 C 5.25 -57.25 8.253906 -68.210938 14.265625 -76.359375 C 20.285156 -84.503906 28.597656 -88.578125 39.203125 -88.578125 C 46.535156 -88.578125 52.171875 -86.960938 56.109375 -83.734375 C 60.046875 -80.515625 62.78125 -77.265625 64.3125 -73.984375 L 65.625 -73.984375 L 65.625 -86.78125 L 91.375 -86.78125 L 91.375 0 L 65.625 0 L 65.625 -13.9375 L 64.3125 -13.9375 C 62.664062 -10.4375 59.847656 -6.992188 55.859375 -3.609375 C 51.867188 -0.222656 46.207031 1.46875 38.875 1.46875 Z M 48.5625 -19.03125 C 54.351562 -19.03125 58.671875 -21.460938 61.515625 -26.328125 C 64.359375 -31.191406 65.78125 -36.960938 65.78125 -43.640625 C 65.78125 -50.203125 64.359375 -55.914062 61.515625 -60.78125 C 58.671875 -65.644531 54.351562 -68.078125 48.5625 -68.078125 C 42.539062 -68.078125 38.132812 -65.695312 35.34375 -60.9375 C 32.5625 -56.1875 31.171875 -50.472656 31.171875 -43.796875 C 31.171875 -37.015625 32.5625 -31.191406 35.34375 -26.328125 C 38.132812 -21.460938 42.539062 -19.03125 48.5625 -19.03125 Z M 48.5625 -19.03125 "/></g></g></g><g fill="#eeede9" fill-opacity="1"><g transform="translate(169.751743, 196.104888)"><g><path d="M 9.34375 -86.78125 L 34.78125 -86.78125 L 34.78125 -73 L 36.09375 -73 C 37.40625 -76.832031 40 -80.085938 43.875 -82.765625 C 47.757812 -85.441406 52.820312 -86.78125 59.0625 -86.78125 C 60.914062 -86.78125 62.664062 -86.613281 64.3125 -86.28125 L 63.15625 -62.828125 C 60.644531 -63.703125 57.75 -64.140625 54.46875 -64.140625 C 47.570312 -64.140625 42.566406 -62.390625 39.453125 -58.890625 C 36.335938 -55.390625 34.78125 -49.59375 34.78125 -41.5 L 34.78125 0 L 9.34375 0 Z M 9.34375 -86.78125 "/></g></g></g><g fill="#eeede9" fill-opacity="1"><g transform="translate(221.752932, 196.104888)"><g><path d="M 39.53125 1.46875 C 28.8125 1.46875 20.523438 -2.601562 14.671875 -10.75 C 8.828125 -18.894531 5.90625 -29.800781 5.90625 -43.46875 C 5.90625 -57.363281 8.828125 -68.351562 14.671875 -76.4375 C 20.523438 -84.53125 28.867188 -88.578125 39.703125 -88.578125 C 47.023438 -88.578125 52.679688 -86.960938 56.671875 -83.734375 C 60.671875 -80.515625 63.4375 -77.265625 64.96875 -73.984375 L 66.28125 -73.984375 L 66.28125 -123.203125 L 92.03125 -123.203125 L 92.03125 0 L 66.28125 0 L 66.28125 -13.9375 L 64.96875 -13.9375 C 63.101562 -10.21875 60.203125 -6.71875 56.265625 -3.4375 C 52.328125 -0.164062 46.75 1.46875 39.53125 1.46875 Z M 49.046875 -18.703125 C 54.847656 -18.703125 59.195312 -21.160156 62.09375 -26.078125 C 64.988281 -31.003906 66.4375 -36.800781 66.4375 -43.46875 C 66.4375 -50.03125 65.015625 -55.71875 62.171875 -60.53125 C 59.328125 -65.34375 54.953125 -67.75 49.046875 -67.75 C 43.140625 -67.75 38.789062 -65.367188 36 -60.609375 C 33.21875 -55.859375 31.828125 -50.144531 31.828125 -43.46875 C 31.828125 -36.800781 33.21875 -31.003906 36 -26.078125 C 38.789062 -21.160156 43.140625 -18.703125 49.046875 -18.703125 Z M 49.046875 -18.703125 "/></g></g></g></g></g></g></g></g><g transform="matrix(1, 0, 0, 1, 225, 260)"><g clip-path="url(#272d7320f6)"><g clip-path="url(#d8f5ab36a5)"><g fill="#eeede9" fill-opacity="1"><g transform="translate(2.440994, 134.270272)"><g><path d="M 53.734375 -133.296875 L 34.953125 -68.046875 L 35.328125 -67.671875 C 40.160156 -73.742188 45.050781 -78.140625 50 -80.859375 C 54.957031 -83.585938 59.734375 -84.953125 64.328125 -84.953125 C 70.523438 -84.953125 75.851562 -82.84375 80.3125 -78.625 C 84.769531 -74.414062 87 -67.972656 87 -59.296875 C 87 -50.628906 84.394531 -41.460938 79.1875 -31.796875 C 73.988281 -22.128906 67.175781 -14.039062 58.75 -7.53125 C 50.320312 -1.019531 41.582031 2.234375 32.53125 2.234375 C 23.113281 2.234375 13.695312 -1.546875 4.28125 -9.109375 L 32.90625 -108.5625 C 33.28125 -109.6875 33.804688 -111.425781 34.484375 -113.78125 C 35.171875 -116.132812 35.515625 -118.175781 35.515625 -119.90625 C 35.515625 -123.625 33.40625 -125.484375 29.1875 -125.484375 C 28.320312 -125.484375 27.359375 -125.359375 26.296875 -125.109375 C 25.242188 -124.867188 24.410156 -124.75 23.796875 -124.75 L 23.609375 -128.46875 L 50.9375 -133.296875 Z M 33.28125 -1.671875 C 40.71875 -1.671875 47.378906 -4.644531 53.265625 -10.59375 C 59.148438 -16.539062 63.734375 -23.882812 67.015625 -32.625 C 70.304688 -41.363281 71.953125 -49.695312 71.953125 -57.625 C 71.953125 -63.207031 70.832031 -67.671875 68.59375 -71.015625 C 66.363281 -74.359375 62.894531 -76.03125 58.1875 -76.03125 C 52.738281 -76.03125 47.285156 -73.890625 41.828125 -69.609375 C 36.378906 -65.335938 32.351562 -58.679688 29.75 -49.640625 L 17.46875 -7.0625 C 20.195312 -5.332031 22.800781 -4 25.28125 -3.0625 C 27.757812 -2.132812 30.425781 -1.671875 33.28125 -1.671875 Z M 33.28125 -1.671875 "/></g></g></g></g><g clip-path="url(#20d4ffb5c7)"><g fill="#eeede9" fill-opacity="1"><g transform="translate(76.984567, 134.270272)"><g><path d="M 25.84375 -20.828125 C 24.976562 -17.847656 24.328125 -15.457031 23.890625 -13.65625 C 23.453125 -11.863281 23.234375 -10.347656 23.234375 -9.109375 C 23.234375 -8.242188 23.453125 -7.59375 23.890625 -7.15625 C 24.328125 -6.71875 24.726562 -6.5 25.09375 -6.5 C 26.582031 -6.5 29.125 -8.296875 32.71875 -11.890625 C 36.3125 -15.492188 38.539062 -18.035156 39.40625 -19.515625 L 42.390625 -17.84375 C 38.421875 -12.394531 34.082031 -7.6875 29.375 -3.71875 C 24.664062 0.25 20.265625 2.234375 16.171875 2.234375 C 11.210938 2.234375 8.734375 -0.675781 8.734375 -6.5 C 8.734375 -8.851562 9.226562 -11.765625 10.21875 -15.234375 C 11.21875 -18.710938 11.898438 -21.007812 12.265625 -22.125 L 38.671875 -113.953125 C 39.410156 -116.804688 39.78125 -119.039062 39.78125 -120.65625 C 39.78125 -122.257812 39.222656 -123.554688 38.109375 -124.546875 C 36.992188 -125.546875 35.566406 -126.046875 33.828125 -126.046875 C 31.472656 -126.046875 29.367188 -125.859375 27.515625 -125.484375 L 27.515625 -129.015625 L 54.84375 -133.296875 L 58 -133.296875 L 28.25 -29.1875 C 27.019531 -24.726562 26.21875 -21.941406 25.84375 -20.828125 Z M 25.84375 -20.828125 "/></g></g></g></g><g fill="#eeede9" fill-opacity="1"><g transform="translate(114.348672, 134.270272)"><g><path d="M 57.8125 -84.953125 C 61.164062 -84.953125 64.203125 -83.804688 66.921875 -81.515625 C 69.648438 -79.222656 71.328125 -76.035156 71.953125 -71.953125 L 72.3125 -71.953125 L 75.296875 -82.921875 L 89.984375 -84.953125 L 70.828125 -17.84375 C 70.703125 -17.59375 70.390625 -16.660156 69.890625 -15.046875 C 69.398438 -13.441406 69.15625 -11.832031 69.15625 -10.21875 C 69.15625 -9.226562 69.398438 -8.453125 69.890625 -7.890625 C 70.390625 -7.335938 70.953125 -7.0625 71.578125 -7.0625 C 73.179688 -7.0625 75.222656 -8.175781 77.703125 -10.40625 C 80.179688 -12.632812 82.535156 -15.734375 84.765625 -19.703125 L 87.5625 -17.84375 C 84.21875 -11.644531 79.972656 -6.75 74.828125 -3.15625 C 69.679688 0.4375 65.125 2.234375 61.15625 2.234375 C 58.925781 2.234375 57.253906 1.425781 56.140625 -0.1875 C 55.023438 -1.800781 54.46875 -3.785156 54.46875 -6.140625 C 54.46875 -7.742188 54.804688 -10.375 55.484375 -14.03125 C 56.171875 -17.6875 57.257812 -21.375 58.75 -25.09375 L 58.375 -25.46875 C 44.488281 -7 31.910156 2.234375 20.640625 2.234375 C 15.679688 2.234375 11.742188 0.0976562 8.828125 -4.171875 C 5.921875 -8.453125 4.46875 -13.382812 4.46875 -18.96875 C 4.46875 -28.632812 7.285156 -38.640625 12.921875 -48.984375 C 18.554688 -59.335938 25.554688 -67.921875 33.921875 -74.734375 C 42.285156 -81.546875 50.25 -84.953125 57.8125 -84.953125 Z M 19.328125 -22.5 C 19.328125 -17.664062 20.441406 -14.128906 22.671875 -11.890625 C 24.910156 -9.660156 27.515625 -8.546875 30.484375 -8.546875 C 34.328125 -8.546875 38.476562 -10.28125 42.9375 -13.75 C 47.40625 -17.226562 51.53125 -21.660156 55.3125 -27.046875 C 59.09375 -32.441406 61.910156 -37.925781 63.765625 -43.5 C 65.617188 -48.957031 66.976562 -53.453125 67.84375 -56.984375 C 68.71875 -60.515625 69.15625 -63.953125 69.15625 -67.296875 C 69.15625 -72.128906 68.039062 -75.691406 65.8125 -77.984375 C 63.582031 -80.273438 60.976562 -81.421875 58 -81.421875 C 52.175781 -81.421875 46.257812 -77.859375 40.25 -70.734375 C 34.238281 -63.609375 29.25 -55.273438 25.28125 -45.734375 C 21.3125 -36.191406 19.328125 -28.445312 19.328125 -22.5 Z M 19.328125 -22.5 "/></g></g></g><g fill="#eeede9" fill-opacity="1"><g transform="translate(194.283511, 134.270272)"><g><path d="M 62.28125 -84.953125 C 66.738281 -84.953125 70.640625 -83.648438 73.984375 -81.046875 C 77.335938 -78.453125 79.015625 -74.859375 79.015625 -70.265625 C 79.015625 -66.796875 78.019531 -63.882812 76.03125 -61.53125 C 74.050781 -59.175781 71.820312 -58 69.34375 -58 C 67.601562 -58 66.113281 -58.617188 64.875 -59.859375 C 63.632812 -61.097656 63.015625 -62.648438 63.015625 -64.515625 C 63.015625 -66.117188 63.320312 -67.351562 63.9375 -68.21875 C 64.5625 -69.09375 65.492188 -70.085938 66.734375 -71.203125 C 67.847656 -72.191406 68.625 -72.960938 69.0625 -73.515625 C 69.5 -74.078125 69.71875 -74.851562 69.71875 -75.84375 C 69.71875 -77.832031 68.878906 -79.289062 67.203125 -80.21875 C 65.535156 -81.144531 63.769531 -81.609375 61.90625 -81.609375 C 55.332031 -81.609375 49.164062 -78.476562 43.40625 -72.21875 C 37.644531 -65.96875 33.03125 -58.472656 29.5625 -49.734375 C 26.09375 -40.992188 24.359375 -33.460938 24.359375 -27.140625 C 24.359375 -20.578125 25.96875 -15.28125 29.1875 -11.25 C 32.40625 -7.21875 36.617188 -5.203125 41.828125 -5.203125 C 46.910156 -5.203125 51.710938 -6.75 56.234375 -9.84375 C 60.753906 -12.945312 64.628906 -16.609375 67.859375 -20.828125 L 70.640625 -18.96875 C 58.867188 -4.832031 46.476562 2.234375 33.46875 2.234375 C 25.78125 2.234375 19.765625 -0.457031 15.421875 -5.84375 C 11.085938 -11.238281 8.921875 -17.65625 8.921875 -25.09375 C 8.921875 -34.144531 11.492188 -43.347656 16.640625 -52.703125 C 21.785156 -62.054688 28.507812 -69.769531 36.8125 -75.84375 C 45.113281 -81.914062 53.601562 -84.953125 62.28125 -84.953125 Z M 62.28125 -84.953125 "/></g></g></g><g clip-path="url(#c25c74b779)"><g fill="#eeede9" fill-opacity="1"><g transform="translate(258.788647, 134.270272)"><g><path d="M 54.84375 -133.296875 L 28.4375 -41.265625 L 28.8125 -40.90625 L 58.5625 -63.953125 C 59.175781 -64.453125 60.628906 -65.597656 62.921875 -67.390625 C 65.222656 -69.191406 67.082031 -70.863281 68.5 -72.40625 C 69.925781 -73.957031 70.640625 -75.289062 70.640625 -76.40625 C 70.640625 -78.507812 68.160156 -79.5625 63.203125 -79.5625 L 64.140625 -82.921875 L 100.953125 -82.921875 L 100.015625 -79.5625 C 93.691406 -79.4375 87.179688 -77.484375 80.484375 -73.703125 C 73.796875 -69.929688 64.195312 -63.148438 51.6875 -53.359375 L 63.390625 -21.1875 C 65.128906 -16.351562 66.617188 -12.851562 67.859375 -10.6875 C 69.097656 -8.519531 70.644531 -7.4375 72.5 -7.4375 C 74.488281 -7.4375 77 -8.675781 80.03125 -11.15625 C 83.070312 -13.632812 86.265625 -16.976562 89.609375 -21.1875 L 92.390625 -19.328125 C 80.492188 -4.953125 71.203125 2.234375 64.515625 2.234375 C 62.398438 2.234375 60.410156 1.398438 58.546875 -0.265625 C 56.691406 -1.941406 54.835938 -5.320312 52.984375 -10.40625 L 40.34375 -44.796875 L 26.40625 -34.015625 L 16.734375 0 L 2.609375 0 L 35.515625 -114.890625 C 36.378906 -117.742188 36.8125 -119.847656 36.8125 -121.203125 C 36.8125 -122.816406 36.253906 -124.085938 35.140625 -125.015625 C 34.023438 -125.953125 32.472656 -126.421875 30.484375 -126.421875 C 28.878906 -126.421875 27.425781 -126.296875 26.125 -126.046875 C 24.820312 -125.796875 23.921875 -125.609375 23.421875 -125.484375 L 23.421875 -129.015625 L 51.5 -133.296875 Z M 54.84375 -133.296875 "/></g></g></g></g></g></g></svg>